<svg xmlns="http://www.w3.org/2000/svg" width="135" height="40"><g fill="none" opacity=".8"><path fill="#A6A6A6" d="M130.2 40H4.7A4.7 4.7 0 0 1 0 35.3V4.7C0 2.1 2.1 0 4.7 0h125.5c2.6 0 4.8 2.1 4.8 4.7v30.6c0 2.6-2.2 4.7-4.8 4.7z"/><path fill="#000" d="M134 35.3c0 2-1.7 3.8-3.8 3.8H4.7A3.8 3.8 0 0 1 1 35.3V4.7C.9 2.7 2.6 1 4.7 1h125.5c2.1 0 3.8 1.7 3.8 3.8v30.6z"/><path fill="#FFF" d="M30.1 19.8c0-3.2 2.7-4.8 2.8-4.9a6 6 0 0 0-4.7-2.5c-2-.2-3.9 1.2-4.9 1.2-1 0-2.5-1.2-4.2-1.2a6.2 6.2 0 0 0-5.2 3.2c-2.3 4-.6 9.7 1.6 12.9 1 1.5 2.3 3.3 4 3.2 1.6 0 2.2-1 4.2-1s2.5 1 4.2 1c1.7 0 2.8-1.6 3.9-3.2a13 13 0 0 0 1.7-3.6s-3.4-1.3-3.4-5.1zM27 10.3c.9-1 1.5-2.6 1.3-4-1.2 0-2.8.8-3.7 1.9a6 6 0 0 0-1.4 3.9c1.5.1 3-.7 3.8-1.8zm26.7 21.2h-2.2l-1.3-4h-4.3l-1.2 4h-2.2l4.3-13.3h2.7l4.3 13.3zM49.8 26l-1.2-3.5L48 20l-.7 2.5-1.1 3.5h3.6zm14.9.6c0 1.6-.5 3-1.4 3.9a4 4 0 0 1-3 1.2c-1.2 0-2-.4-2.6-1.3v5h-2.2V22h1.8l.1 1.5a3.5 3.5 0 0 1 3.3-1.7c1.1 0 2 .5 2.8 1.4.8.8 1.2 2 1.2 3.5zm-2.2 0a4 4 0 0 0-.6-2.2c-.5-.7-1.1-1-1.9-1-.5 0-1 .2-1.4.5a2.8 2.8 0 0 0-1 2v1.7c0 .7.2 1.3.7 1.7a2.2 2.2 0 0 0 3.5-.2 4 4 0 0 0 .7-2.4zm13.2 0c0 1.6-.4 3-1.3 3.9-.8.8-1.8 1.2-3 1.2s-2.1-.4-2.7-1.3v5h-2.2V22h1.8l.2 1.5a3.5 3.5 0 0 1 3.2-1.7c1.2 0 2.1.5 2.9 1.4.7.8 1.1 2 1.1 3.5zm-2.2 0a4 4 0 0 0-.6-2.2c-.5-.7-1-1-1.9-1-.5 0-1 .2-1.4.5-.4.4-.7.8-.8 1.4l-.1.7v1.6c0 .7.2 1.3.6 1.7.4.5 1 .8 1.7.8.8 0 1.4-.4 1.8-1a4 4 0 0 0 .7-2.4zM88 27.9c0 1.1-.4 2-1.1 2.7-1 .8-2.1 1.2-3.7 1.2-1.4 0-2.5-.3-3.4-.8l.5-1.8c1 .6 2 .9 3 .9a3 3 0 0 0 2-.6c.4-.3.6-.8.6-1.4 0-.6-.2-1-.6-1.4-.3-.4-1-.7-1.8-1-2.3-.9-3.5-2.2-3.5-3.8 0-1.1.4-2 1.2-2.7.8-.7 2-1 3.3-1 1.2 0 2.2.2 3 .6l-.5 1.7c-.8-.4-1.6-.6-2.6-.6-.7 0-1.3.2-1.8.6-.3.3-.5.7-.5 1.2s.2 1 .6 1.3l2 1c1.1.5 2 1 2.5 1.6.5.6.8 1.4.8 2.3zm7-4.3h-2.3v4.7c0 1.2.5 1.7 1.3 1.7h1v1.6l-1.7.2c-.8 0-1.5-.3-2-.8-.4-.5-.7-1.3-.7-2.6v-4.8h-1.4V22h1.4v-1.8l2.1-.6V22h2.4v1.6zm10.7 3.1c0 1.5-.4 2.7-1.3 3.7s-2 1.4-3.5 1.4c-1.4 0-2.5-.4-3.3-1.4-.9-1-1.3-2-1.3-3.5s.4-2.7 1.3-3.7 2-1.4 3.5-1.4c1.4 0 2.5.5 3.4 1.4a5 5 0 0 1 1.2 3.5zm-2.2.1c0-.9-.2-1.6-.6-2.3-.4-.7-1-1.1-2-1.1-.8 0-1.4.4-1.9 1.1a5.6 5.6 0 0 0 0 4.6c.5.8 1.1 1.2 2 1.2.8 0 1.4-.4 1.9-1.2.4-.6.6-1.4.6-2.3zm9.1-3h-.6a2 2 0 0 0-1.8.9c-.3.5-.5 1.1-.5 1.9v5h-2.2V22h1.8l.1 1.8c.3-.6.7-1.1 1.1-1.5a2.9 2.9 0 0 1 2-.5v2zm9.6 2.6-.1 1h-6.4c0 .9.3 1.6 1 2 .4.5 1.1.8 2 .8a7 7 0 0 0 2.6-.5l.3 1.5a8 8 0 0 1-3.2.6c-1.5 0-2.6-.5-3.5-1.4-.8-.8-1.3-2-1.3-3.5 0-1.4.4-2.6 1.2-3.6a4 4 0 0 1 3.4-1.5c1.4 0 2.4.5 3.1 1.5.6.8.9 1.8.9 3zm-2-.6c0-.6-.2-1.2-.5-1.6a2 2 0 0 0-1.7-1 2 2 0 0 0-1.7 1 3 3 0 0 0-.6 1.6h4.4zM49 10c0 1.2-.3 2-1 2.7-.7.5-1.6.8-2.8.8h-1.5V7l1.8-.1c1.1 0 2 .2 2.6.7.6.6 1 1.4 1 2.4zm-1 0c0-.7-.3-1.3-.7-1.7-.4-.4-1-.6-1.7-.6h-.9v5h.7a3 3 0 0 0 1.9-.7 3 3 0 0 0 .6-2zm7 1c0 .8-.3 1.4-.7 1.8-.4.5-1 .7-1.7.7s-1.3-.2-1.7-.6c-.4-.5-.6-1-.6-1.8 0-.7.2-1.3.6-1.8.5-.4 1-.7 1.8-.7.6 0 1.2.3 1.6.7.4.5.6 1 .6 1.8zm-1.2 0c0-.4 0-.7-.3-1a1 1 0 0 0-.9-.6 1 1 0 0 0-1 .6l-.2 1.1c0 .5 0 .8.2 1.1.3.4.6.6 1 .6s.7-.2 1-.6l.2-1.1zm9-2.3-1.5 4.7h-1l-.6-2-.4-1.5c0 .5-.2 1-.4 1.5l-.6 2h-1L56 8.8h1l.5 2.3.4 1.5c0-.4.2-.9.4-1.5l.6-2.2h.9l.6 2.2.4 1.5.4-1.5.5-2.2h1zm5.4 4.7h-1v-2.7c0-.8-.4-1.2-1-1.2a1 1 0 0 0-.8.3c-.2.3-.2.5-.2.9v2.8H64V8.7h.9v.8l.6-.6c.3-.2.6-.3 1-.3s.8.2 1 .5c.4.3.6.8.6 1.5v2.9zm2.9 0h-1V6.6h1m6.2 4.4c0 .8-.2 1.4-.7 1.8-.4.5-1 .7-1.7.7s-1.2-.2-1.6-.6c-.5-.5-.7-1-.7-1.8 0-.7.3-1.3.7-1.8.4-.4 1-.7 1.7-.7s1.2.3 1.7.7c.4.5.6 1 .6 1.8zm-1.1 0c0-.4-.1-.7-.3-1a1 1 0 0 0-1-.6 1 1 0 0 0-1 .6l-.2 1c0 .5.1.9.3 1.2.2.4.5.6 1 .6.3 0 .7-.2.9-.6.2-.3.3-.7.3-1.1zm6.1 2.4h-1V13c-.3.4-.8.6-1.4.6-.4 0-.8-.1-1-.4-.3-.2-.4-.6-.4-1 0-.5.2-1 .7-1.3.5-.3 1.1-.4 2-.4v-.1c0-.6-.3-1-1-1-.4 0-.9.2-1.2.4l-.2-.7a3 3 0 0 1 1.6-.4c1.2 0 1.8.7 1.8 2v1.7l.1 1.1zm-1-1.6v-.7c-1.2 0-1.8.3-1.8 1 0 .2 0 .4.2.5l.5.2.7-.2a1 1 0 0 0 .4-.8zm7 1.6h-1v-.7c-.3.6-.8.8-1.5.8-.6 0-1-.2-1.5-.6-.3-.5-.5-1-.5-1.8 0-.7.2-1.3.6-1.8.4-.4.9-.7 1.5-.7s1 .3 1.3.7V6.6h1v6.8zm-1.1-2v-1.1c0-.2-.2-.4-.4-.6a1 1 0 0 0-.7-.3 1 1 0 0 0-1 .5 2 2 0 0 0-.3 1.2c0 .4.1.8.4 1.1.2.3.5.5.9.5.3 0 .6-.2.8-.4.2-.3.3-.5.3-.9zm10-.4c0 .8-.2 1.4-.6 1.8-.4.5-1 .7-1.7.7s-1.2-.2-1.7-.6c-.4-.5-.6-1-.6-1.8 0-.7.3-1.3.7-1.8.4-.4 1-.7 1.7-.7s1.2.3 1.7.7c.4.5.6 1 .6 1.7zm-1 0c0-.4-.1-.7-.3-1a1 1 0 0 0-1-.6 1 1 0 0 0-1 .6l-.2 1.1c0 .5 0 .8.3 1.1.2.4.5.6 1 .6.3 0 .6-.2.9-.6.2-.3.3-.7.3-1.1zm6.7 2.4h-1v-2.7c0-.8-.4-1.2-1-1.2a1 1 0 0 0-.8.3c-.2.3-.3.5-.3.9v2.8h-1V8.7h.9v.8l.6-.6c.3-.2.6-.3 1-.3s.7.2 1 .5c.4.3.6.8.6 1.5v2.9zm7-3.9h-1.1v2.3c0 .6.2.9.6.9h.5v.7l-.8.2c-.4 0-.8-.2-1-.4-.2-.3-.3-.7-.3-1.3V9.5h-.7v-.8h.7V8l1-.3v1.1h1.1v.8zm5.6 4h-1v-2.7c0-.9-.4-1.3-1-1.3-.5 0-.8.2-1 .7v3.3h-1.1v-7h1v2.9c.4-.5.9-.8 1.5-.8.4 0 .8.2 1 .5.4.3.6.8.6 1.5v2.8zm5.7-2.6v.4H118c0 .5.2.9.5 1.1.2.2.6.3 1 .3.5 0 .9 0 1.3-.2l.1.8c-.4.2-1 .2-1.5.2-.8 0-1.3-.2-1.8-.6-.4-.4-.6-1-.6-1.7s.2-1.3.6-1.8a2 2 0 0 1 1.6-.7c.7 0 1.2.2 1.6.7.3.4.4 1 .4 1.5zm-1-.3c0-.3 0-.6-.2-.8a1 1 0 0 0-.8-.4 1 1 0 0 0-.9.4l-.3.8h2.2z"/></g></svg>