<svg xmlns="http://www.w3.org/2000/svg" viewBox="0 0 441.6 147.8"><defs><clipPath id="clip-path"><circle cx="55.1" cy="87.7" r="47.6" class="cls-1"/></clipPath><clipPath id="clip-path-4" transform="translate(5 12.5)"><path d="M0 0v87.7a7.5 7.5 0 0 0 7.5 7.5h95.2a7.5 7.5 0 0 0 7.5-7.5V0Zm67.6 20h-25a5 5 0 1 1 0-10h25a5 5 0 1 1 0 10Z" class="cls-1"/></clipPath><clipPath id="clip-path-7" transform="translate(5 12.5)"><circle cx="55.1" cy="87.7" r="47.6" style="clip-path:url(#clip-path);fill:none"/></clipPath><radialGradient id="radial-gradient" cx="67.4" cy="21.3" r="570.1" gradientTransform="matrix(0 0 0 0 -17.2 5)" gradientUnits="userSpaceOnUse"><stop offset="0" stop-color="#fff" stop-opacity=".1"/><stop offset="1" stop-color="#fff" stop-opacity="0"/></radialGradient><style>.cls-1{fill:none}.cls-3{clip-path:url(#clip-path-4)}.cls-13{fill:#212121;fill-opacity:.02}</style></defs><g id="Layer_2" data-name="Layer 2"><g id="Layer_1-2" data-name="Layer 1"><path d="M0 0h110.2v95.2H0Z" class="cls-3" style="fill:#eee" transform="translate(5 12.5)"/><path d="M67.6 10h-25a5 5 0 1 0 0 10h25a5 5 0 1 0 0-10Z" class="cls-3" style="fill:#fff" transform="translate(5 12.5)"/><g class="cls-3"><g style="clip-path:url(#clip-path-7)"><path d="M15 40v58.5h21.4L55 66h47.6V40Zm0 0v58.5h21.4L55 66h47.6V40Z" style="fill:#db4437" transform="translate(5 12.5)"/><path d="M7.5 135.3h45.3l21-21V98.5H36.4L7.5 49Zm0 0h45.3l21-21V98.5H36.4L7.5 49Z" style="fill:#0f9d58" transform="translate(5 12.5)"/><path d="m55.1 66 18.7 32.5-21 36.8h49.9V66Zm0 0 18.7 32.5-21 36.8h49.9V66Z" style="fill:#ffcd40" transform="translate(5 12.5)"/><circle cx="60.1" cy="100.2" r="21.6" style="fill:#f1f1f1"/><circle cx="60.1" cy="100.2" r="17.3" style="fill:#4285f4"/></g><path d="M0 0h110.2v47.6H0Z" class="cls-3" style="fill-opacity:.05;fill:#212121" transform="translate(5 12.5)"/><path d="M5 59.5h110.2v.6H5Z" class="cls-13"/><path d="M0 47.6h110.2v.6H0Z" style="fill-opacity:.05;fill:#fff" transform="translate(5 12.5)"/><path d="M72.6 32.5h-25a5 5 0 0 1-5-4.7v.3a5 5 0 0 0 5 5h25a5 5 0 0 0 5-5v-.3a5 5 0 0 1-5 4.7ZM5 12.5v.7h110.2v-.7Z" class="cls-13"/><path d="M42.6 10h25a5 5 0 0 1 5 4.7v-.3a5 5 0 0 0-5-5h-25a5 5 0 0 0-5 5v.3a5 5 0 0 1 5-4.7Zm60.1 84.6H7.5A7.5 7.5 0 0 1 0 87v.6a7.5 7.5 0 0 0 7.5 7.5h95.2a7.5 7.5 0 0 0 7.5-7.5V87a7.5 7.5 0 0 1-7.5 7.6Z" style="fill:#231f20;fill-opacity:.1" transform="translate(5 12.5)"/><path d="M0 0v87.7a7.5 7.5 0 0 0 7.5 7.5h95.2a7.5 7.5 0 0 0 7.5-7.5V0Zm67.6 20h-25a5 5 0 1 1 0-10h25a5 5 0 1 1 0 10Z" style="fill:url(#radial-gradient)" transform="translate(5 12.5)"/><path d="M0 0h120.2v120.2H0Z" class="cls-1"/></g><path d="M155.3 91.1a13.5 13.5 0 0 1-13.8-13.8 13.5 13.5 0 0 1 13.7-13.9 12.3 12.3 0 0 1 9.8 4.4l-2.4 2.3a9 9 0 0 0-7.3-3.4 10 10 0 0 0-7.3 3 10.3 10.3 0 0 0-3 7.6 10.3 10.3 0 0 0 3 7.6 10 10 0 0 0 7.3 3 10.4 10.4 0 0 0 8.1-3.9l2.4 2.4a12.9 12.9 0 0 1-4.6 3.4 14 14 0 0 1-6 1.3ZM172.2 64v8.4l-.2 2.5h.1a6 6 0 0 1 2.4-2.2 6.8 6.8 0 0 1 3.4-1A6.4 6.4 0 0 1 183 74a8.2 8.2 0 0 1 1.8 5.5v11.1h-3.4V80q0-5-4.5-5a4.2 4.2 0 0 0-3.4 1.7 6 6 0 0 0-1.4 4v10h-3.4V64Zm20.1 26.5h-3.5V72.4h3.3v3h.1a4.6 4.6 0 0 1 2.2-2.5 6 6 0 0 1 3.1-1 6.5 6.5 0 0 1 2.6.5l-1.3 3.2a5.2 5.2 0 0 0-1.9-.3 4.5 4.5 0 0 0-3.2 1.5 5.3 5.3 0 0 0-1.5 3.8Zm10.5-16a9.5 9.5 0 0 1 13.3 0 10.4 10.4 0 0 1 0 13.8 9.5 9.5 0 0 1-13.3 0 10.4 10.4 0 0 1 0-13.8Zm2.5 11.7a5.7 5.7 0 0 0 8.3 0 7.3 7.3 0 0 0 0-9.5 5.7 5.7 0 0 0-8.3 0 7.3 7.3 0 0 0 0 9.5Zm16.2 4.3V72.4h3.3v2.5h.1a6.4 6.4 0 0 1 2.4-2.2 6.6 6.6 0 0 1 3.2-1q4.2 0 5.7 3.6a7 7 0 0 1 6.4-3.5 5.8 5.8 0 0 1 4.8 2 8.7 8.7 0 0 1 1.6 5.6v11.1h-3.4V80a5.9 5.9 0 0 0-1-3.9 3.8 3.8 0 0 0-3-1.1 4 4 0 0 0-3.3 1.7 6.2 6.2 0 0 0-1.3 4v10h-3.4V79.8a6 6 0 0 0-1-3.9 3.8 3.8 0 0 0-3-1.1 4 4 0 0 0-3.3 1.7 6.2 6.2 0 0 0-1.4 4v10Zm39.8.6a8.7 8.7 0 0 1-6.7-2.7 9.7 9.7 0 0 1-2.6-7 10 10 0 0 1 2.5-6.8 8 8 0 0 1 6.4-2.8 8.4 8.4 0 0 1 6.5 2.6 10 10 0 0 1 2.4 7v.6h-14.4a6 6 0 0 0 1.8 4.4 5.5 5.5 0 0 0 4 1.6 4.9 4.9 0 0 0 5-3.1l3 1.2a8.1 8.1 0 0 1-3 3.6 8.5 8.5 0 0 1-5 1.4Zm4.8-11.8a4.8 4.8 0 0 0-1.4-3 5 5 0 0 0-3.9-1.4 5 5 0 0 0-3.3 1.1 6 6 0 0 0-1.9 3.2ZM311 64l-7 26.5h-3.6L294.7 73h-.1l-5.7 17.5h-3.5L278 64h3.6l5.4 21h.2l5.7-17.3h3.2l5.8 17.3h.2l5.2-20.9Zm8.8 27.1a8.7 8.7 0 0 1-6.7-2.7 9.7 9.7 0 0 1-2.5-7 10 10 0 0 1 2.5-6.8 8.1 8.1 0 0 1 6.3-2.8 8.4 8.4 0 0 1 6.5 2.6 10 10 0 0 1 2.4 7v.6H314a6.2 6.2 0 0 0 1.8 4.4 5.5 5.5 0 0 0 4 1.6 4.9 4.9 0 0 0 5-3.1l3 1.2a8.1 8.1 0 0 1-3 3.6 8.5 8.5 0 0 1-5 1.4Zm5-11.8a4.8 4.8 0 0 0-1.5-3 5 5 0 0 0-4-1.4 5 5 0 0 0-3.2 1.1 6 6 0 0 0-1.9 3.2ZM341 91.1a7.7 7.7 0 0 1-3.7-.9 6.3 6.3 0 0 1-2.5-2.2h-.1v2.5h-3.3V64h3.4v8.4l-.1 2.5h.1a6.3 6.3 0 0 1 2.5-2.2 7.7 7.7 0 0 1 3.7-1 8 8 0 0 1 6 2.9 10.5 10.5 0 0 1 0 13.7 8 8 0 0 1-6 2.8Zm-.5-3.1a5.4 5.4 0 0 0 4-1.8 7.5 7.5 0 0 0 0-9.5 5.5 5.5 0 0 0-8.1 0 7.6 7.6 0 0 0 0 9.5 5.4 5.4 0 0 0 4 1.8Zm27.3 3.1a9.8 9.8 0 0 1-5.6-1.9 8.8 8.8 0 0 1-3.6-5.3l3.1-1.2a7 7 0 0 0 2.3 3.6 5.8 5.8 0 0 0 3.9 1.5 6.2 6.2 0 0 0 3.8-1.1 3.7 3.7 0 0 0 1.5-3.2 4 4 0 0 0-1.6-3.4 16.4 16.4 0 0 0-5-2.2 13.2 13.2 0 0 1-5.3-3 6 6 0 0 1-1.8-4.4 6.6 6.6 0 0 1 2.3-5 8.3 8.3 0 0 1 5.9-2A8.5 8.5 0 0 1 373 65a7.8 7.8 0 0 1 2.8 3.7l-3.1 1.3a4.6 4.6 0 0 0-1.7-2.4 5.8 5.8 0 0 0-6.7 0 3.3 3.3 0 0 0-1.4 2.8 3 3 0 0 0 1.3 2.5 12.1 12.1 0 0 0 3.7 1.8 33.3 33.3 0 0 1 3.3 1.3 15.3 15.3 0 0 1 2.7 1.5 6.4 6.4 0 0 1 2 2.5 8 8 0 0 1 .7 3.3 7.3 7.3 0 0 1-.8 3.5 6.6 6.6 0 0 1-2.1 2.4 10.7 10.7 0 0 1-2.8 1.3 10.9 10.9 0 0 1-3.2.5Zm19.4-.3a5.8 5.8 0 0 1-4.4-1.5 5.9 5.9 0 0 1-1.5-4.3v-9.5h-3.2v-3h3.2v-5.7h3.4v5.6h4.5v3.1h-4.5v9.3c0 2 .8 3 2.5 3a3.6 3.6 0 0 0 1.5-.3l1.2 2.9a6.9 6.9 0 0 1-2.7.4Zm6.6-16.3a9.5 9.5 0 0 1 13.4 0 10.4 10.4 0 0 1 0 13.8 9.5 9.5 0 0 1-13.4 0 10.4 10.4 0 0 1 0-13.8Zm2.6 11.7a5.7 5.7 0 0 0 8.3 0 7.3 7.3 0 0 0 0-9.5 5.7 5.7 0 0 0-8.3 0 7.3 7.3 0 0 0 0 9.5Zm19.6 4.3h-3.4V72.4h3.3v3h.1a4.7 4.7 0 0 1 2.1-2.5 6.1 6.1 0 0 1 3.2-1 6.4 6.4 0 0 1 2.5.5l-1.3 3.2a5.2 5.2 0 0 0-1.8-.3 4.5 4.5 0 0 0-3.3 1.5 5.3 5.3 0 0 0-1.4 3.8Zm17.1.6a8.7 8.7 0 0 1-6.7-2.7 9.7 9.7 0 0 1-2.5-7 10 10 0 0 1 2.5-6.8 8.1 8.1 0 0 1 6.4-2.8 8.4 8.4 0 0 1 6.4 2.6 10 10 0 0 1 2.4 7v.6h-14.3a6.2 6.2 0 0 0 1.8 4.4 5.6 5.6 0 0 0 4 1.6 4.9 4.9 0 0 0 5-3.1l3 1.2a8 8 0 0 1-3 3.6 8.5 8.5 0 0 1-5 1.4Zm5-11.8a4.8 4.8 0 0 0-1.5-3 5.1 5.1 0 0 0-4-1.4 4.9 4.9 0 0 0-3.2 1.1 6 6 0 0 0-1.9 3.2ZM143.4 49.4l7.6-20h3l7.5 20h-2.9l-1.9-5.4h-8.4l-2 5.4Zm5.7-7.9h6.7l-3.3-9Zm16.9 7.9-5.5-13.7h2.8l4 10.6 4.2-10.6h2.7l-5.6 13.7Zm14 .4a5.4 5.4 0 0 1-3.6-1.2 4.5 4.5 0 0 1 .2-6.9 7 7 0 0 1 4.3-1.2 7.4 7.4 0 0 1 3.7.8v-.4a3 3 0 0 0-1-2.4 3.7 3.7 0 0 0-2.5-1 4 4 0 0 0-2 .6 2.8 2.8 0 0 0-1.3 1.4l-2.4-1a5.4 5.4 0 0 1 1.9-2.3 6 6 0 0 1 3.7-1 6.3 6.3 0 0 1 4.4 1.6A5.5 5.5 0 0 1 187 41v8.3h-2.5v-1.9h-.1a5 5 0 0 1-4.5 2.3Zm.4-2.3a4.2 4.2 0 0 0 3-1.2 3.7 3.7 0 0 0 1.2-2.8 5 5 0 0 0-3.3-.9 4.2 4.2 0 0 0-2.8.8 2.4 2.4 0 0 0-1 2 1.8 1.8 0 0 0 1 1.5 3.4 3.4 0 0 0 2 .6Zm12.4-15.3a1.8 1.8 0 1 1 .5-1.3 1.8 1.8 0 0 1-.5 1.3Zm0 17.2h-2.6V35.7h2.6Zm5.9 0h-2.5v-20h2.5Zm7.3.4a5.4 5.4 0 0 1-3.6-1.2 4.2 4.2 0 0 1-1.5-3.4 4.1 4.1 0 0 1 1.8-3.5 7 7 0 0 1 4.3-1.3 7.4 7.4 0 0 1 3.7.9v-.4a3 3 0 0 0-1-2.4 3.7 3.7 0 0 0-2.5-1 4 4 0 0 0-2 .6 2.8 2.8 0 0 0-1.4 1.4l-2.3-1a5.3 5.3 0 0 1 1.8-2.3 6 6 0 0 1 3.7-1 6.3 6.3 0 0 1 4.4 1.6A5.5 5.5 0 0 1 213 41v8.3h-2.5v-1.9a5 5 0 0 1-4.5 2.3Zm.5-2.3a4.2 4.2 0 0 0 2.9-1.2 3.7 3.7 0 0 0 1.3-2.8 5 5 0 0 0-3.3-1 4.3 4.3 0 0 0-2.8.9 2.5 2.5 0 0 0-1 1.9 1.8 1.8 0 0 0 .9 1.6 3.4 3.4 0 0 0 2 .6Zm16.8 2.3a5.8 5.8 0 0 1-2.8-.6 4.8 4.8 0 0 1-1.9-1.7v2H216v-20h2.6v6.3l-.1 1.9a4.8 4.8 0 0 1 2-1.7 5.8 5.8 0 0 1 2.8-.7 6 6 0 0 1 4.6 2.1 7.4 7.4 0 0 1 2 5.1 7.4 7.4 0 0 1-2 5.2 6 6 0 0 1-4.6 2.1Zm-.4-2.3a4 4 0 0 0 3.1-1.4 5 5 0 0 0 1.3-3.6A5 5 0 0 0 226 39a4.2 4.2 0 0 0-6.2 0 5 5 0 0 0-1.3 3.6 5 5 0 0 0 1.3 3.6 4.1 4.1 0 0 0 3 1.4Zm11.7 1.9H232v-20h2.6Zm9.2.4a6.6 6.6 0 0 1-5-2 7.3 7.3 0 0 1-2-5.3 7.6 7.6 0 0 1 2-5.1 6.2 6.2 0 0 1 4.7-2.2 6.3 6.3 0 0 1 5 2 7.5 7.5 0 0 1 1.8 5.3v.5h-10.9a4.6 4.6 0 0 0 1.4 3.3 4.2 4.2 0 0 0 3 1.2 3.7 3.7 0 0 0 3.7-2.4l2.3 1a6 6 0 0 1-2.2 2.7 6.5 6.5 0 0 1-3.8 1Zm3.7-9a3.7 3.7 0 0 0-1-2.2 3.9 3.9 0 0 0-3-1 3.7 3.7 0 0 0-2.5 1 4.5 4.5 0 0 0-1.4 2.3Zm14.1-8.6a1.8 1.8 0 1 1-2.6-2.6 1.8 1.8 0 0 1 2.6 2.6Zm0 17.2H259V35.7h2.6Zm5.8-13.7v1.9h.1a4.6 4.6 0 0 1 1.8-1.7 5.2 5.2 0 0 1 2.6-.7 4.8 4.8 0 0 1 3.8 1.6 6.2 6.2 0 0 1 1.4 4.2v8.4h-2.6v-8q0-3.8-3.4-3.8a3.2 3.2 0 0 0-2.6 1.2 4.6 4.6 0 0 0-1 3v7.6H265V35.7Zm24.8 13.9a4 4 0 0 1-4.4-4.4V38h-2.4v-2.3h2.4v-4.2h2.6v4.2h3.3V38h-3.3v7c0 1.5.6 2.3 1.8 2.3a2.8 2.8 0 0 0 1.2-.3l.9 2.3a5.3 5.3 0 0 1-2 .3Zm6.7-20.3v6.4l-.1 1.9h.1a4.7 4.7 0 0 1 1.8-1.7 5.2 5.2 0 0 1 2.5-.7 4.8 4.8 0 0 1 4 1.6 6.2 6.2 0 0 1 1.3 4.2v8.4h-2.6v-8q0-3.8-3.4-3.8a3.2 3.2 0 0 0-2.6 1.2 4.7 4.7 0 0 0-1 3v7.6h-2.6v-20Zm18.8 20.5a6.6 6.6 0 0 1-5-2 7.3 7.3 0 0 1-2-5.3 7.6 7.6 0 0 1 2-5.1 6.2 6.2 0 0 1 4.7-2.2 6.3 6.3 0 0 1 5 2 7.5 7.5 0 0 1 1.8 5.3v.5h-10.9a4.6 4.6 0 0 0 1.4 3.3 4.2 4.2 0 0 0 3 1.2 3.7 3.7 0 0 0 3.7-2.4l2.3 1a6.1 6.1 0 0 1-2.2 2.7 6.5 6.5 0 0 1-3.8 1Zm3.7-9a3.7 3.7 0 0 0-1-2.2 3.9 3.9 0 0 0-3-1 3.7 3.7 0 0 0-2.5.8 4.6 4.6 0 0 0-1.5 2.4Z" style="fill:#e5e5e5"/></g></g></svg>